HIERARCHY
ROOT pelvis
{
  OFFSET 0 100 0
  CHANNELS 6 Xposition Yposition Zposition Zrotation Xrotation Yrotation
  JOINT pelvis_right_femur
  {
    OFFSET -10.78128 -3.44521 -0.5502486
    CHANNELS 3 Zrotation Xrotation Yrotation
    JOINT right_femur_tibia
    {
      OFFSET -0.8047443 -44.0398 -0.1307829
      CHANNELS 3 Zrotation Xrotation Yrotation
      JOINT right_tibia_foot
      {
        OFFSET 3.006224 -47.83518 -5
        CHANNELS 3 Zrotation Xrotation Yrotation
        End Site
        {
          OFFSET 0 -5 15
        }
      }
    }
  }
  JOINT pelvis_left_femur
  {
    OFFSET 10.78128 -3.44521 -0.5502486
    CHANNELS 3 Zrotation Xrotation Yrotation
    JOINT left_femur_tibia
    {
      OFFSET 0.8047443 -44.0398 -0.1307829
      CHANNELS 3 Zrotation Xrotation Yrotation
      JOINT left_tibia_foot
      {
        OFFSET -4.370144 -48.10324 -4.275266
        CHANNELS 3 Zrotation Xrotation Yrotation
        End Site
        {
          OFFSET 0 -5 15
        }
      }
    }
  }
  JOINT pelvis_spine1
  {
    OFFSET 0 6.468898 -3.129235
    CHANNELS 3 Zrotation Xrotation Yrotation
    JOINT spine1
    {
      OFFSET 0 23.15396 4.99043
      CHANNELS 3 Zrotation Xrotation Yrotation
      JOINT spine2
      {
        OFFSET 0 20.79997 -5.064912
        CHANNELS 3 Zrotation Xrotation Yrotation
        JOINT neck
        {
          OFFSET 0 14.38658 9.616178
          CHANNELS 3 Zrotation Xrotation Yrotation
          End Site
          {
            OFFSET 0 20 0
          }
        }
      }
      JOINT right_manubrium
      {
        OFFSET -5.722621 16.35077 3.967754
        CHANNELS 3 Zrotation Xrotation Yrotation
        JOINT right_clavicle
        {
          OFFSET -13.16364 1.694482 -4.693211
          CHANNELS 3 Zrotation Xrotation Yrotation
          JOINT right_humerus
          {
            OFFSET -28.5034 -0.3100689 -2.792744
            CHANNELS 3 Zrotation Xrotation Yrotation
            JOINT right_radius
            {
              OFFSET -25.15693 0.02248979 -1.271978
              CHANNELS 3 Zrotation Xrotation Yrotation
              End Site
              {
                OFFSET -15 0 0
              }
            }
          }
        }
      }
      JOINT left_manubrium
      {
        OFFSET 5.722621 16.35077 3.967754
        CHANNELS 3 Zrotation Xrotation Yrotation
        JOINT left_clavicle
        {
          OFFSET 13.16364 1.694482 -4.693211
          CHANNELS 3 Zrotation Xrotation Yrotation
          JOINT left_humerus
          {
            OFFSET 29.39168 -1.063119 -2.237045
            CHANNELS 3 Zrotation Xrotation Yrotation
            JOINT left_radius
            {
              OFFSET 24.59957 -0.9528479 0.9047498
              CHANNELS 3 Zrotation Xrotation Yrotation
              End Site
              {
                OFFSET 15 -0 -0
              }
            }
          }
        }
      }
    }
  }
}
MOTION
Frames: 19
Frame Time: 0.0416666666667
0 103.5113 0 1.631064 -2.739103 -0.02428205 2.423629 -12.82324 7.122891 -0 37.99836 -0 -5.463303 -18.12682 -3.069354 -7.197705 11.47661 -23.46476 -0 4.163567 -0 7.310636 -15.61072 25.91915 -2.160491 -3.487306 5.553387 2.719764 9.690077 -7.32505 1.5617 21.61162 6.289172 2.199748 -26.93638 10.43306 6.013605 -19.78615 10.89288 85.90352 35.61048 -19.66977 -0 0 15.74089 -5.104996 7.370337 3.451635 5.666196 -20.65389 -0.9315897 -96.22901 26.13708 25.92676 0 0 -13.78122 11.01339 16.95852 2.67693
0.2520223 103.4116 1.344595 1.232678 -1.906602 -0.1725727 3.17422 -14.78031 8.621873 -0 38.44207 -0 -5.187645 -17.90871 -3.693874 -7.045896 11.45673 -23.72162 -0 4.792485 -0 7.258072 -16.5724 26.65126 -2.202918 -3.566868 5.651162 2.63375 9.665102 -7.224436 1.573832 21.75219 6.181811 2.107244 -26.82754 10.3977 5.987 -19.85759 10.8285 85.75231 35.62418 -19.40221 -0 0 15.91537 -5.155918 7.244419 3.509123 5.56342 -20.60487 -0.9085391 -96.49982 26.36299 26.30926 0 0 -13.30985 10.84369 17.19736 2.897962
0.4975525 103.2171 3.014092 0.8832033 -0.9593273 -0.2360341 3.740015 -18.23868 8.312428 -0 35.20995 -0 -5.393461 -15.47261 -3.526493 -6.916396 11.62564 -22.77298 -0 5.28132 -0 7.046164 -18.08038 25.95257 -2.074991 -3.246335 5.435259 2.918424 10.05836 -7.730765 1.350226 21.25129 6.366378 2.391402 -26.90639 9.9208 5.90915 -19.66397 11.2117 86.6552 35.26948 -20.63989 -0 0 14.90495 -5.925981 7.632577 4.033259 5.674622 -21.10655 -1.215689 -95.23688 25.80723 24.92369 0 0 -15.4676 10.33916 15.51087 3.443545
0.7385062 102.9366 4.943052 0.5327886 -0.1203575 -0.2218959 4.266619 -21.18475 8.204635 -0 32.65118 -0 -5.534256 -13.63815 -3.485153 -6.740021 11.76845 -22.03355 -0 5.67173 -0 6.513778 -19.44825 25.21463 -1.987511 -3.067433 5.254008 3.166343 10.2744 -8.112205 1.206844 20.86803 6.533696 2.578656 -27.09824 9.695876 5.841584 -19.54329 11.46067 87.33824 35.02421 -21.62601 -0 0 14.21539 -6.255242 7.841342 4.280322 5.801454 -21.46949 -1.41287 -94.39397 25.42941 23.97236 0 0 -17.13163 10.14949 14.38241 3.67459
0.9806794 102.5368 7.238822 0.2119092 0.8683547 -0.1106089 4.872203 -24.60728 7.887267 -0 29.12062 -0 -5.596832 -11.55063 -3.265766 -6.626189 12.01781 -21.01733 -0 6.086378 -0 6.475791 -20.63543 24.3702 -1.911691 -2.954428 5.103178 3.447304 10.50205 -8.537792 1.037648 20.47379 6.677755 2.724481 -27.37004 9.452829 5.728497 -19.48939 11.71854 88.13023 34.70983 -22.77378 -0 0 13.52472 -6.548478 7.925217 4.545116 5.898964 -21.91102 -1.643623 -93.62936 25.1863 23.18899 0 0 -18.93797 9.850587 13.18182 4.107154
1.225553 102.01 9.932586 -0.1032916 1.797631 0.1057217 5.447648 -27.81288 7.47468 -0 25.54241 -0 -5.67727 -9.533908 -2.985976 -6.498073 12.35194 -19.98297 -0 6.619207 -0 6.302534 -21.64369 23.37727 -1.846935 -2.880965 4.965545 3.716622 10.69201 -8.938719 0.8773468 20.10493 6.816113 2.847603 -27.65236 9.247904 5.604644 -19.45525 11.94731 88.88782 34.41153 -23.87368 -0 0 12.89426 -6.79726 7.96902 4.785311 5.99889 -22.34435 -1.859592 -92.94282 24.99119 22.50128 0 0 -20.66674 9.589335 12.07649 4.517114
1.472206 101.3685 13.10616 -0.4573663 2.74552 0.4437402 6.062931 -30.98337 6.933994 -0 21.69905 -0 -5.835016 -7.352887 -2.586961 -6.335385 12.81936 -18.85827 -0 7.496504 -0 5.925583 -22.47381 22.13395 -1.791435 -2.839117 4.852669 3.963484 10.86811 -9.314293 0.7197625 19.77079 6.935457 2.947732 -27.91142 9.047536 5.472673 -19.44142 12.15514 89.61716 34.11251 -24.92392 -0 0 12.31635 -7.058637 7.979288 5.028383 6.082396 -22.77783 -2.076453 -92.33639 24.8578 21.92509 0 0 -22.28256 9.302202 11.04479 4.977617
1.717877 100.6395 16.82248 -0.8652631 3.590478 0.9115247 6.655312 -33.71473 6.265883 -0 18.01317 -0 -6.123035 -5.143905 -2.108285 -6.086572 13.40494 -17.70883 -0 8.878822 -0 4.967818 -23.02163 20.50399 -1.74403 -2.812871 4.765494 4.168992 11.03275 -9.644564 0.5726199 19.48907 7.031058 3.029503 -28.10622 8.847515 5.346317 -19.43245 12.33672 90.27964 33.82676 -25.86284 -0 0 11.8022 -7.359093 7.98527 5.273606 6.144098 -23.18705 -2.289654 -91.81159 24.76968 21.44554 0 0 -23.69549 8.991756 10.12362 5.465946
1.956553 99.88521 21.15305 -1.349972 4.270198 1.50707 7.240062 -35.6853 5.519953 -0 14.78635 -0 -6.561722 -3.018417 -1.583879 -5.700615 14.08711 -16.54551 -0 11.08602 -0 3.178222 -23.06352 18.36193 -1.704097 -2.790837 4.710236 4.319405 11.19595 -9.917074 0.4396369 19.27549 7.093829 3.093219 -28.20561 8.636823 5.236548 -19.4221 12.49165 90.85142 33.55617 -26.6531 -0 0 11.36121 -7.721504 8.001167 5.521594 6.170635 -23.55636 -2.501389 -91.38042 24.72857 21.07183 0 0 -24.83035 8.638304 9.333609 5.993629
2.178123 99.20247 26.14052 -1.892202 4.630486 2.191777 7.795003 -36.30064 4.827127 -0 12.58832 -0 -7.084248 -1.336481 -1.151866 -5.131611 14.75819 -15.39805 -0 14.48141 -0 0.4034192 -22.2194 15.70378 -1.672285 -2.760952 4.692977 4.401074 11.36427 -10.11696 0.3256316 19.14586 7.115399 3.139213 -28.17998 8.407406 5.153928 -19.40458 12.61844 91.30043 33.30733 -27.24669 -0 0 11.00662 -8.166026 8.042044 5.773238 6.148987 -23.86458 -2.71017 -91.05397 24.73307 20.81165 0 0 -25.61033 8.228427 8.697094 6.562237
2.368547 98.74158 31.77861 -2.431879 4.529045 2.86997 8.313442 -34.94317 4.419424 -0 12.00841 -0 -7.552613 -0.559969 -1.014482 -4.375958 15.17712 -14.26523 -0 19.5931 -0 -3.099708 -19.99346 12.7923 -1.651235 -2.712938 4.722593 4.400781 11.54213 -10.2279 0.2344686 19.11506 7.087063 3.166962 -28.00284 8.150774 5.105728 -19.37911 12.71579 91.58903 33.08852 -27.58798 -0 0 10.75763 -8.716255 8.119124 6.035956 6.064957 -24.08838 -2.912738 -90.84499 24.78314 20.68073 0 0 -25.96285 7.746544 8.230326 7.176243
2.515919 98.69293 37.97139 -2.832701 3.850997 3.373838 8.683672 -31.2621 4.495039 -0 13.33185 -0 -7.804098 -1.098921 -1.376215 -3.549015 14.91325 -13.09248 -0 26.96747 -0 -6.427838 -16.10567 10.26639 -1.646603 -2.639209 4.810903 4.305282 11.72831 -10.2303 0.1688381 19.1953 7.001592 3.176004 -27.65229 7.859599 5.093032 -19.35173 12.78181 91.66984 32.91307 -27.60633 -0 0 10.64359 -9.403201 8.240064 6.328732 5.906153 -24.20087 -3.101776 -90.76496 24.87561 20.70135 0 0 -25.82577 7.179595 7.940988 7.836669
2.62526 99.24136 44.513 -2.906988 2.578223 3.506429 8.659314 -25.67294 4.965941 -0 15.93615 -0 -7.854481 -2.848722 -2.186164 -2.925812 13.37802 -11.81658 -0 36.91755 -0 -8.283126 -11.05147 8.875907 -1.668203 -2.537252 4.973221 4.102229 11.91242 -10.10102 0.1291257 19.39258 6.855708 3.166651 -27.11617 7.529412 5.106294 -19.33932 12.814 91.48435 32.80067 -27.21308 -0 0 10.70875 -10.26852 8.406234 6.687858 5.665648 -24.17225 -3.264357 -90.8216 25.0011 20.9036 0 0 -25.16176 6.521088 7.822122 8.537194
2.732088 100.4543 51.09693 -2.505869 0.7795325 3.167411 8.045542 -19.35727 5.327581 -0 18.12722 -0 -7.933174 -4.986131 -2.947725 -2.787452 9.956566 -10.56611 -0 48.67214 -0 -8.091821 -6.412355 8.963085 -1.730523 -2.412501 5.226718 3.783983 12.07068 -9.816145 0.1119307 19.70014 6.65475 3.141107 -26.40254 7.162471 5.120465 -19.37303 12.80992 90.96658 32.7769 -26.30686 -0 0 11.0135 -11.36209 8.608978 7.169642 5.347995 -23.97307 -3.380682 -91.01297 25.13927 21.32143 0 0 -23.98555 5.779833 7.843647 9.255999
2.888244 102.1454 57.37913 -1.688765 -1.262717 2.491208 7.03959 -13.27983 5.01981 -0 18.16031 -0 -8.085486 -6.695744 -2.91885 -3.044365 4.165492 -9.64881 -0 59.25163 -0 -7.031756 -3.960929 10.17631 -1.850996 -2.278975 5.58545 3.353483 12.16484 -9.357653 0.1094092 20.09225 6.417337 3.104365 -25.54967 6.772165 5.094222 -19.49632 12.76854 90.05425 32.86705 -24.79105 -0 0 11.62609 -12.73161 8.828475 7.844066 4.974415 -23.57981 -3.425158 -91.31942 25.25471 21.97991 0 0 -22.39049 4.989456 7.947578 9.947187
3.112872 103.8481 63.15399 -0.7688872 -2.971291 1.754927 6.183237 -7.598572 4.130696 -0 15.73711 -0 -7.856321 -8.015398 -1.929118 -3.110323 -3.643081 -8.864493 -0 64.31119 -0 -6.686197 -3.97575 11.72404 -2.043551 -2.155097 6.051753 2.83038 12.15015 -8.724336 0.1111303 20.52293 6.176149 3.063913 -24.62783 6.385449 4.979533 -19.75245 12.6919 88.71226 33.08038 -22.61134 -0 0 12.59896 -14.39928 9.038504 8.77099 4.582598 -22.9834 -3.37262 -91.69913 25.29843 22.87487 0 0 -20.55251 4.211019 8.05539 10.54101
3.364996 105.0527 68.51342 -0.07545353 -4.181489 1.092501 5.813029 -2.263572 3.438643 -0 12.44434 -0 -6.943051 -9.28798 -0.9499795 -2.383566 -11.49604 -7.517431 -0 62.17574 -0 -6.778868 -5.062134 13.31946 -2.306554 -2.05418 6.60685 2.252208 11.9953 -7.943128 0.1094639 20.93432 5.970462 3.028184 -23.72318 6.039386 4.743511 -20.16034 12.58628 86.96812 33.38766 -19.81059 -0 0 13.93212 -16.33043 9.219705 9.961054 4.218711 -22.19945 -3.209834 -92.09367 25.21761 23.95214 0 0 -18.69047 3.519622 8.091823 10.96299
3.602984 105.5043 73.70291 0.2674866 -5.167853 0.4802424 5.737621 2.703109 3.381865 -0 10.04891 -0 -5.705426 -10.75301 -0.8005363 -0.8724671 -17.54212 -5.585245 -0 54.8275 -0 -6.330888 -5.89336 15.14037 -2.611222 -1.976222 7.208934 1.666224 11.70628 -7.072959 0.1049428 21.27246 5.830949 3.004625 -22.90651 5.768657 4.390903 -20.6931 12.46217 84.94579 33.70854 -16.57812 -0 0 15.54519 -18.41537 9.372501 11.34527 3.924642 -21.27792 -2.947756 -92.44613 24.97266 25.10583 0 0 -16.99543 2.973327 8.011717 11.17323
3.846811 105.2438 78.92513 0.2958451 -5.758863 -0.1210633 5.612691 7.141933 3.622577 -0 8.881982 -0 -4.673602 -12.61332 -1.082943 0.8887237 -21.70721 -3.700001 -0 44.88305 -0 -5.299013 -6.050421 16.8346 -2.904111 -1.909709 7.803758 1.116434 11.33488 -6.196006 0.1050333 21.50202 5.766512 2.998337 -22.21092 5.588993 3.967124 -21.28101 12.33402 82.86741 33.93243 -13.24993 -0 0 17.28403 -20.48605 9.513678 12.78323 3.726932 -20.30507 -2.62626 -92.72185 24.5575 26.20833 0 0 -15.58248 2.583157 7.807342 11.20116
